<svg xmlns="http://www.w3.org/2000/svg" width="75.284" height="68.57" viewBox="0 0 75.284 68.57"><defs><style>.a{fill:none;stroke:#f96555;stroke-linecap:round;stroke-linejoin:round;stroke-width:2px;}</style></defs><g transform="translate(1 1)"><g transform="translate(6.729 28.026)"><path class="a" d="M432.434,499.264a5.384,5.384,0,0,0-7.59,0l-5.059,5.059a5.367,5.367,0,0,0,7.59,7.59l5.059-5.06A5.382,5.382,0,0,0,432.434,499.264Z" transform="translate(-418.221 -497.699)"/><path class="a" d="M437.2,504.027a5.382,5.382,0,0,0-7.588,0l-5.059,5.06a5.366,5.366,0,0,0,7.588,7.588l5.059-5.059A5.384,5.384,0,0,0,437.2,504.027Z" transform="translate(-415.396 -494.874)"/><path class="a" d="M441.961,508.792a5.382,5.382,0,0,0-7.588,0l-5.059,5.059a5.366,5.366,0,1,0,7.588,7.588l5.059-5.059A5.382,5.382,0,0,0,441.961,508.792Z" transform="translate(-412.572 -492.05)"/><path class="a" d="M446.727,513.556h0a5.384,5.384,0,0,0-7.59,0l-5.059,5.059a5.384,5.384,0,0,0,0,7.59h0a5.382,5.382,0,0,0,7.588,0l5.06-5.06A5.382,5.382,0,0,0,446.727,513.556Z" transform="translate(-409.748 -489.226)"/></g><path class="a" d="M470.762,486.4a21.465,21.465,0,0,0-30.354,0l-7.588,7.59a5.382,5.382,0,0,0,0,7.588h0a5.382,5.382,0,0,0,7.588,0L448,493.988l22.766,22.766A21.464,21.464,0,0,0,470.762,486.4Z" transform="translate(-403.765 -480.097)"/><path class="a" d="M445.056,488.827l20.767,20.767a5.351,5.351,0,0,1-7.567,7.567l-14.437-14.437-.021.022,14.436,14.437a5.35,5.35,0,1,1-7.566,7.566L436.23,510.314l-.022.021,14.437,14.437a5.319,5.319,0,0,1-5.234,8.905l-.014.027a5.361,5.361,0,0,0,5.552-8.651,5.383,5.383,0,0,0,7.59-7.588,5.371,5.371,0,0,0,7.462-7.7l-20.942-20.941Z" transform="translate(-400.829 -474.933)"/><path class="a" d="M450.656,486.388a21.479,21.479,0,0,0-30.37,30.381l.022-.021a21.448,21.448,0,0,1,30.325-30.34l0,0Z" transform="translate(-413.996 -480.103)"/></g></svg>