<svg xmlns="http://www.w3.org/2000/svg" width="59.461" height="73.94" viewBox="0 0 59.461 73.94"><defs><style>.a{fill:none;stroke:#f96555;stroke-linecap:round;stroke-linejoin:round;stroke-width:2px;}</style></defs><g transform="translate(1 1)"><path class="a" d="M183.949,178.414H163.635c-2.929,0-6.365-1.932-9.188-5.17-2.855-3.27-4.558-7.308-4.558-10.8V151.364h.03v11.078c0,3.487,1.7,7.519,4.551,10.784,2.819,3.229,6.246,5.158,9.166,5.158h20.3c1.611-1.28,3.339-2.586,5.168-3.968a130.891,130.891,0,0,0,10.311-8.324c3.243-3.051,4.821-5.459,4.821-7.359v-2.759c0-2.946-1.993-7.371-5.075-11.274-3.241-4.1-6.761-6.554-9.416-6.554-4.87,0-9.583,4.2-11.595,5.991-2.441,2.173-3.664,3.942-3.742,5.406a2.7,2.7,0,0,0,.787,2.027c1.065,1.17,2.655,1.716,5,1.716h.123a16.4,16.4,0,0,0,6.779-1.545l.012-.006.007.011,4.1,6.511-.025.016-4.094-6.5a16.523,16.523,0,0,1-6.782,1.542h-.123c-2.351,0-3.948-.548-5.02-1.726a2.732,2.732,0,0,1-.794-2.048c.078-1.473,1.3-3.249,3.751-5.427,2.015-1.8,6.734-6,11.616-6,2.664,0,6.193,2.453,9.44,6.563,3.087,3.908,5.08,8.342,5.08,11.294v2.759c0,4.265-7.7,10.082-15.142,15.707-1.831,1.383-3.56,2.69-5.173,3.971Z" transform="translate(-146.806 -106.474)"/><path class="a" d="M150.943,154.046c5.615,8.444,17.1,15.629,19.616,17.144a.955.955,0,0,0,.993,0c2.278-1.368,11.866-7.369,17.838-14.742l-1.266-2.011a16.524,16.524,0,0,1-6.782,1.542h-.123c-2.351,0-3.948-.548-5.02-1.726a2.732,2.732,0,0,1-.794-2.048c.078-1.473,1.3-3.249,3.751-5.427,2.015-1.8,6.734-6,11.616-6a6.772,6.772,0,0,1,2.959.832,12.493,12.493,0,0,0-21.9-3.891.968.968,0,0,1-1.551,0,12.495,12.495,0,0,0-22.45,7.561,16.173,16.173,0,0,0,3.1,8.745h.015Z" transform="translate(-147.831 -109.136)"/><g transform="translate(3.097 0)"><path class="a" d="M164.219,145.584a12.461,12.461,0,0,1,9.118-4.9V122.117a5.117,5.117,0,1,0-10.234,0v23.777A.954.954,0,0,0,164.219,145.584Z" transform="translate(-143.316 -117)"/><path class="a" d="M170.759,138.831a12.459,12.459,0,0,1,9.409,4.283V125.749a5.117,5.117,0,0,0-10.234,0v13.129C170.207,138.861,170.478,138.831,170.759,138.831Z" transform="translate(-139.912 -115.19)"/><path class="a" d="M159.307,135.158c.048,0,.094.007.142.007v-2.048a4.787,4.787,0,1,0-9.551,0v6.326A12.464,12.464,0,0,1,159.307,135.158Z" transform="translate(-149.898 -111.517)"/><path class="a" d="M166.073,143.707a.952.952,0,0,0,.435.31V125.884a5.118,5.118,0,0,0-10.236,0v12.887A12.465,12.465,0,0,1,166.073,143.707Z" transform="translate(-146.721 -115.122)"/></g></g></svg>