<svg xmlns="http://www.w3.org/2000/svg" width="233.146" height="66.764" viewBox="0 0 233.146 66.764"><defs><style>.a{fill:#fff;}.b{fill:#fff;}.c{fill:#fff;}.d{fill:#fff;}</style></defs><g transform="translate(-9.422 -101.27)"><g transform="translate(91.443 120.727)"><path class="a" d="M80.659,145.269V118.744h3.109v26.525Zm15,0L83.768,131.841l11.356-13.1H98.4L87.083,131.427l12.558,13.842Z" transform="translate(-80.659 -118.082)"/><path class="a" d="M101.234,134.516c0,4.228,2.2,8.041,6.837,8.041a22.343,22.343,0,0,0,6.383-.995V143.8a18.008,18.008,0,0,1-6.714,1.243c-6.631,0-9.657-4.434-9.657-10.733,0-5.969,2.9-11.066,9.449-11.066,5.636,0,7.957,4.766,7.957,9.78v1.492Zm6.092-9.076c-3.606,0-5.969,3.855-5.969,7.129h11.356C112.714,129.377,111.014,125.44,107.326,125.44Z" transform="translate(-78.021 -117.401)"/><path class="a" d="M131.158,144.593V130.958c0-3.067-.745-5.1-4.268-5.1a11.861,11.861,0,0,0-6.258,2.072v16.661h-3.109V123.746h3.109V125.4a20.105,20.105,0,0,1,7.46-2.2c4.89,0,6.176,3.688,6.176,7.874v13.51Z" transform="translate(-75.078 -117.406)"/><path class="a" d="M144.155,145.6c-4.477,0-5.72-2.2-5.72-6.465V126.576h-2.984v-1.534c2.777-.828,3.855-2.32,4.642-5.139l1.45-.332V124.3h6.508v2.28h-6.508v12.392c0,2.238.25,4.393,3.026,4.393a17.23,17.23,0,0,0,3.855-.5v1.326A8.856,8.856,0,0,1,144.155,145.6Z" transform="translate(-72.364 -117.957)"/><path class="a" d="M163.682,146.019a19.073,19.073,0,0,1-8.538-2.071v-4.021a18.521,18.521,0,0,0,8.123,2.279c2.113,0,4.974-.828,4.974-3.439,0-5.429-12.807-3.812-12.807-12.89,0-4.766,4.6-7.707,8.993-7.707a16.017,16.017,0,0,1,7.294,1.864v2.984a15.013,15.013,0,0,0-5.43-.995c-2.2-.041-5.676.622-5.676,3.44,0,4.144,12.806,4.31,12.806,12.308C173.421,143.117,168.573,146.019,163.682,146.019Z" transform="translate(-69.383 -118.169)"/><path class="a" d="M185.48,146.019c-7.874,0-13.056-6.424-13.056-14.008,0-7.627,5.181-13.842,13.056-13.842a17.391,17.391,0,0,1,8.164,2.361v3.109a14.055,14.055,0,0,0-6.259-1.451c-5.512,0-9.408,4.766-9.408,10.071,0,5.387,2.653,9.905,8.5,9.905a28.47,28.47,0,0,0,8.288-1.575v3.439A22.009,22.009,0,0,1,185.48,146.019Z" transform="translate(-66.767 -118.169)"/><path class="a" d="M203.529,135.529h-3.275v9.74h-5.512V118.744h11.19c5.1,0,8.579,2.4,8.579,7.791C214.512,132.5,208.876,135.529,203.529,135.529Zm.208-12.889c-1.161,0-2.321.083-3.483.166v8.911c1.12.041,2.239.207,3.357.207a5.177,5.177,0,0,0,5.347-5.1C208.959,123.345,206.762,122.64,203.738,122.64Z" transform="translate(-63.388 -118.082)"/></g><g transform="translate(9.422 101.27)"><g transform="translate(0 3.973)"><path class="b" d="M10.426,121.628a3.437,3.437,0,1,1,0,4.859A3.438,3.438,0,0,1,10.426,121.628Z" transform="translate(-9.422 -102.314)"/><path class="b" d="M31.416,108.732a44.007,44.007,0,0,1,4.617-4.011,29.938,29.938,0,0,0-20.779,16.556,5.918,5.918,0,0,1-2.774,11.106c-.036.675-.058,1.347-.048,2.022a40.585,40.585,0,0,0,6.615,8.646,41.893,41.893,0,0,0,4.646,4.011C16.294,137.27,19.438,120.71,31.416,108.732Z" transform="translate(-8.966 -104.721)"/></g><g transform="translate(39.783 20.2)"><path class="c" d="M62.371,135.013a3.437,3.437,0,1,1,0,4.861A3.441,3.441,0,0,1,62.371,135.013Z" transform="translate(-41.341 -116.514)"/><path class="c" d="M63.246,143.932a5.92,5.92,0,0,1,4.264-10.108c.047-.785.076-1.569.067-2.355a40.661,40.661,0,0,0-6.619-8.645,41.614,41.614,0,0,0-4.645-4.01c7.4,9.787,4.253,26.347-7.721,38.326a44.453,44.453,0,0,1-4.617,4.015,29.945,29.945,0,0,0,20.613-16.222A5.923,5.923,0,0,1,63.246,143.932Z" transform="translate(-43.974 -118.814)"/></g><g transform="translate(20.57)"><path class="a" d="M43.456,102.276a3.437,3.437,0,1,1,0,4.858A3.441,3.441,0,0,1,43.456,102.276Z" transform="translate(-24.991 -101.27)"/><path class="a" d="M61.562,113.131a29.866,29.866,0,0,0-8.228-5.947,5.917,5.917,0,0,1-11.071-2.972c-.735-.051-1.467-.085-2.2-.084a40.675,40.675,0,0,0-8.715,6.527,42,42,0,0,0-4.062,4.6c9.873-7.293,26.4-3.968,38.243,8.14a44.334,44.334,0,0,1,3.965,4.662A29.846,29.846,0,0,0,61.562,113.131Z" transform="translate(-27.287 -100.838)"/></g><g transform="translate(4.072 39.293)"><path class="d" d="M29.417,154.292a3.435,3.435,0,1,1,0,4.857A3.437,3.437,0,0,1,29.417,154.292Z" transform="translate(-10.619 -132.689)"/><path class="d" d="M30,155.243a5.914,5.914,0,0,1,10.1,3.99c.765.056,1.529.091,2.29.091A40.747,40.747,0,0,0,51.1,152.8a41.934,41.934,0,0,0,4.06-4.6c-9.87,7.294-26.394,3.968-38.242-8.138a45.244,45.244,0,0,1-3.964-4.662,29.949,29.949,0,0,0,16.207,20.9A5.9,5.9,0,0,1,30,155.243Z" transform="translate(-12.958 -135.397)"/></g></g></g></svg>