<svg xmlns="http://www.w3.org/2000/svg" width="91.69" height="84.044" viewBox="0 0 91.69 84.044"><defs><style>.a{fill:none;stroke:#f96555;stroke-linecap:round;stroke-linejoin:round;stroke-width:2px;}</style></defs><g transform="translate(1 1)"><g transform="translate(0 23.426)"><path class="a" d="M451.2,449.4H433.377v-.094a5.893,5.893,0,0,0-1.736-4.191l-14.468-11.486A13.733,13.733,0,0,1,413,423.443V406.193a4.608,4.608,0,1,1,9.216,0V419.08c1.405-1.259,3.855-1.687,6.346.142,2.009,1.472,14.336,13.444,16.972,16.083a18.388,18.388,0,0,1,5.665,14Zm-17.637-.187h17.45a18.2,18.2,0,0,0-5.609-13.779c-2.635-2.635-14.95-14.6-16.95-16.064-1.8-1.319-4.434-1.837-6.265-.009a4.437,4.437,0,0,0,0,6.254l8.328,8.33-.131.131-8.328-8.33a4.615,4.615,0,0,1-.026-6.488V406.193a4.423,4.423,0,1,0-8.846,0v17.251a13.553,13.553,0,0,0,4.111,10.049l14.47,11.486A6.066,6.066,0,0,1,433.562,449.214Z" transform="translate(-413 -401.583)"/><path class="a" d="M442.99,427.124H425.354a3.01,3.01,0,0,0-3.01,3.01v7.883H446v-7.883A3.01,3.01,0,0,0,442.99,427.124Z" transform="translate(-404.884 -379.399)"/><g transform="translate(48.575)"><path class="a" d="M458.379,449.4H440.557v-.094a18.388,18.388,0,0,1,5.665-14c2.637-2.638,14.963-14.61,16.972-16.083,2.491-1.831,4.937-1.4,6.346-.142V406.193a4.608,4.608,0,1,1,9.216,0v17.251a13.727,13.727,0,0,1-4.165,10.18l-14.483,11.5a5.886,5.886,0,0,0-1.728,4.184Zm-17.637-.187h17.45a6.07,6.07,0,0,1,1.79-4.228l14.485-11.5a13.547,13.547,0,0,0,4.1-10.042V406.193a4.423,4.423,0,1,0-8.846,0V419.26a4.615,4.615,0,0,1-.026,6.488l-8.328,8.33-.131-.131,8.326-8.33a4.432,4.432,0,0,0,0-6.254c-1.829-1.827-4.462-1.31-6.263.009-2,1.469-14.315,13.429-16.95,16.064A18.206,18.206,0,0,0,440.742,449.214Z" transform="translate(-437.64 -401.583)"/><path class="a" d="M459.642,427.124H442.006a3.01,3.01,0,0,0-3.01,3.01v7.883h23.656v-7.883A3.01,3.01,0,0,0,459.642,427.124Z" transform="translate(-438.996 -379.399)"/></g></g><path class="a" d="M446.1,422.971a.852.852,0,0,0,.878,0c2.973-1.786,20.072-12.512,20.072-22.882a11.036,11.036,0,0,0-19.827-6.678.851.851,0,0,1-1.368,0,11.036,11.036,0,0,0-19.827,6.678C426.023,410.46,443.122,421.185,446.1,422.971Z" transform="translate(-401.689 -389.046)"/></g></svg>