<svg xmlns="http://www.w3.org/2000/svg" width="90.613" height="76.225" viewBox="0 0 90.613 76.225"><defs><style>.a{fill:none;stroke:#f96555;stroke-linecap:round;stroke-linejoin:round;stroke-width:2px;}</style></defs><g transform="translate(1 1)"><path class="a" d="M188.737,267.048a.869.869,0,0,0,.905,0c3.073-1.845,20.737-12.926,20.737-23.638a11.4,11.4,0,0,0-20.483-6.9.883.883,0,0,1-1.414,0A11.4,11.4,0,0,0,168,243.41C168,254.122,185.665,265.2,188.737,267.048Z" transform="translate(-121.767 -192.972)"/><path class="a" d="M201.643,250.768a11.369,11.369,0,0,1,9.073,4.512.883.883,0,0,0,1.414,0,11.234,11.234,0,0,1,10.713-4.381c3.573-5.278,5.918-10.832,5.918-16.339a22.8,22.8,0,0,0-40.966-13.8,1.762,1.762,0,0,1-2.828,0A22.8,22.8,0,0,0,144,234.56c0,21.425,35.33,43.586,41.475,47.277a1.739,1.739,0,0,0,1.811,0c1.647-.99,5.4-3.317,10.006-6.594-3.884-3.937-7.058-8.53-7.058-13.065A11.41,11.41,0,0,1,201.643,250.768Z" transform="translate(-144 -211.74)"/></g></svg>